# xmcd
#
# Track frame offsets: 
#        151
#        19085
#        39654
#        55643
#        75951
#        94202
#        106000
#        120413
#        133476
#        143754
#        168624
#        187770
#        201141
#        214774
#        240420
#        252054
#        267358
#
# Disc length: 3722 seconds
#
# Revision: 0
# Processed by: cddbd v1.5.2PL0 Copyright (c) Steve Scherf et al.
# Submitted via: ExactAudioCopy v0.99pb4
#
DISCID=de0e8811
DTITLE=Arthur Conley and The Sweaters - Recorded Live in Amsterdam (Jan 
DTITLE=1980)
DYEAR=2007
DGENRE=Soul
TTITLE0=You Don't Know Like I Know
TTITLE1=You Send Me
TTITLE2=My Girl
TTITLE3=(Sittin' on) The Dock of the Bay
TTITLE4=I've Been Loving You Too Long (To Stop Now)
TTITLE5=Another Saturday Night
TTITLE6=Twisting The Night Away
TTITLE7=I Thank You
TTITLE8=Stagger Lee
TTITLE9=When Something Is Wrong With My Baby
TTITLE10=Bring It On Home To Me
TTITLE11=(What) A Wonderful World
TTITLE12=634-5789 (That's My Number)
TTITLE13=A Change Is Gonna Come
TTITLE14=Fa-Fa-Fa-Fa-Fa (Sad Song)
TTITLE15=Don't Fight It
TTITLE16=Soul Man
EXTD=WBB-003 www.walboomers.com
EXTT0=
EXTT1=
EXTT2=
EXTT3=
EXTT4=
EXTT5=
EXTT6=
EXTT7=
EXTT8=
EXTT9=
EXTT10=
EXTT11=
EXTT12=
EXTT13=
EXTT14=
EXTT15=
EXTT16=
PLAYORDER=
